HIERARCHY
ROOT Joint1
{
	OFFSET 0.000000 0.000000 0.000000
	CHANNELS 6 Xposition Yposition Zposition Xrotation Yrotation Zrotation
	JOINT Joint2
	{
		OFFSET -0.000000 0.000000 1.456275
		CHANNELS 6 Xposition Yposition Zposition Xrotation Yrotation Zrotation
		JOINT Joint3
		{
			OFFSET -0.000000 0.000002 1.471446
			CHANNELS 6 Xposition Yposition Zposition Xrotation Yrotation Zrotation
			JOINT Joint4
			{
				OFFSET 0.625745 0.000000 0.917755
				CHANNELS 6 Xposition Yposition Zposition Xrotation Yrotation Zrotation
				JOINT Joint5
				{
					OFFSET -0.629534 0.000001 0.940221
					CHANNELS 6 Xposition Yposition Zposition Xrotation Yrotation Zrotation
					JOINT Joint6
					{
						OFFSET -0.000001 0.113772 1.960660
						CHANNELS 6 Xposition Yposition Zposition Xrotation Yrotation Zrotation
						JOINT Joint7
						{
							OFFSET -0.669733 -0.113771 0.388340
							CHANNELS 6 Xposition Yposition Zposition Xrotation Yrotation Zrotation
							End Site
							{
								OFFSET 0.005509 0.005509 0.438980
							}
						}
					}
				}
			}
		}
	}
}
MOTION
Frames: 22
Frame Time: 0.041667
0.000000 0.000000 0.000000 -0.000000 1.019410 55.979974 -0.000000 0.000000 1.456275 0.000000 6.860326 0.000002 -0.000000 0.000002 1.471445 -0.000003 -1.133455 67.176789 0.625745 0.000000 0.917755 -0.000070 91.381060 -0.000018 -0.629534 0.000001 0.940221 0.000002 1.709736 65.487253 -0.000001 0.113772 1.960660 -88.303889 74.576664 0.000011 -0.669733 -0.113771 0.388340 -0.489982 3.543095 122.756422 
0.000000 0.000000 0.000000 -0.000000 1.019410 54.283270 -0.000000 0.000000 1.456275 -0.000000 5.289207 0.000000 -0.000000 0.000002 1.471446 -0.000003 -1.133456 65.140293 0.625745 0.000000 0.917755 0.000020 92.703603 -0.000025 -0.629533 0.000001 0.940221 -0.000001 1.709737 63.502181 -0.000001 0.113772 1.960661 -88.303896 75.043213 -0.000004 -0.669733 -0.113771 0.388340 -0.496412 3.544465 123.126290 
0.000000 0.000000 0.000000 -0.000000 1.019410 52.586569 -0.000000 -0.000000 1.456275 -0.000000 3.718095 -0.000001 -0.000000 0.000002 1.471446 -0.000003 -1.133455 63.103804 0.625745 0.000000 0.917755 0.000021 94.026146 -0.000017 -0.629533 0.000001 0.940221 -0.000002 1.709737 61.517116 -0.000001 0.113772 1.960661 -88.303903 75.509756 -0.000004 -0.669734 -0.113771 0.388340 -0.502843 3.545793 123.496145 
0.000000 0.000000 0.000000 -0.000000 1.019410 50.889841 -0.000000 0.000000 1.456275 0.000000 2.146964 -0.000002 -0.000000 0.000002 1.471446 -0.000003 -1.133455 61.067294 0.625745 0.000000 0.917755 0.000004 95.348703 -0.000002 -0.629534 0.000001 0.940221 0.000002 1.709736 59.532038 -0.000001 0.113772 1.960661 -88.303903 75.976306 -0.000006 -0.669733 -0.113771 0.388340 -0.509284 3.547081 123.866013 
0.000000 0.000000 0.000000 -0.000000 1.019410 49.193095 -0.000000 -0.000000 1.456275 -0.000000 0.575807 -0.000001 -0.000000 0.000002 1.471446 -0.000002 -1.133455 59.030757 0.625745 0.000000 0.917755 0.000026 96.671280 -0.000017 -0.629533 0.000001 0.940221 -0.000003 1.709737 57.546926 -0.000001 0.113772 1.960660 -88.303889 76.442862 -0.000010 -0.669733 -0.113771 0.388340 -0.515737 3.548330 124.235895 
0.000000 0.000000 0.000000 -0.000000 1.019410 47.496418 -0.000000 -0.000000 1.456275 -0.000000 -0.995279 -0.000001 -0.000000 0.000002 1.471445 -0.000002 -1.133455 56.994292 0.625744 0.000000 0.917755 0.000019 97.993803 -0.000007 -0.629534 0.000001 0.940221 -0.000000 1.709737 55.561895 -0.000001 0.113772 1.960660 -88.303896 76.909405 -0.000008 -0.669734 -0.113771 0.388340 -0.522192 3.549527 124.605750 
0.000000 0.000000 0.000000 -0.000000 1.019410 45.799851 -0.000000 -0.000000 1.456275 -0.000000 -2.566269 -0.000001 -0.000000 0.000002 1.471446 -0.000003 -1.133455 54.957956 0.625745 0.000000 0.917755 0.000008 99.316244 -0.000002 -0.629534 0.000001 0.940221 -0.000001 1.709736 53.576991 -0.000001 0.113772 1.960660 -88.303896 77.375921 -0.000011 -0.669733 -0.113771 0.388339 -0.528659 3.550691 124.975591 
0.000000 0.000000 0.000000 -0.000000 1.019410 44.102996 -0.000000 0.000000 1.456275 -0.000000 -4.137522 -0.000002 -0.000000 0.000002 1.471446 -0.000002 -1.133455 52.921282 0.625745 0.000000 0.917755 0.000012 100.638896 -0.000005 -0.629533 0.000001 0.940221 -0.000001 1.709738 51.591752 -0.000001 0.113772 1.960661 -88.303903 77.842498 -0.000007 -0.669733 -0.113771 0.388340 -0.535133 3.551812 125.345487 
0.000000 0.000000 0.000000 -0.000000 1.019410 42.405749 -0.000000 -0.000000 1.456275 0.000000 -5.709134 0.000001 -0.000000 0.000002 1.471446 -0.000002 -1.133456 50.884144 0.625744 0.000000 0.917755 0.000009 101.961863 -0.000005 -0.629534 0.000001 0.940221 -0.000001 1.709737 49.606062 -0.000001 0.113772 1.960660 -88.303903 78.309205 -0.000013 -0.669733 -0.113771 0.388340 -0.541616 3.552893 125.715478 
0.000000 0.000000 0.000000 -0.000000 1.019410 40.709567 -0.000000 0.000000 1.456275 -0.000000 -7.279764 -0.000005 -0.000000 0.000002 1.471446 -0.000002 -1.133456 48.848284 0.625744 0.000000 0.917755 0.000007 103.284003 -0.000004 -0.629534 0.000001 0.940221 -0.000001 1.709737 47.621609 -0.000001 0.113772 1.960660 -88.303903 78.775611 -0.000012 -0.669733 -0.113770 0.388340 -0.548100 3.553927 126.085224 
0.000000 0.000000 0.000000 -0.000000 1.019410 39.014833 -0.000000 -0.000000 1.456275 -0.000000 -8.849056 -0.000002 -0.000000 0.000002 1.471446 -0.000001 -1.133456 46.814154 0.625745 0.000000 0.917755 0.000007 104.605003 -0.000003 -0.629533 0.000001 0.940221 -0.000001 1.709737 45.638843 -0.000001 0.113772 1.960661 -88.303903 79.241614 -0.000008 -0.669733 -0.113771 0.388340 -0.554586 3.554925 126.454655 
0.000000 0.000000 0.000000 -0.000000 1.019410 37.316141 -0.000000 0.000000 1.456275 -0.000000 -10.422007 -0.000001 -0.000000 0.000002 1.471445 -0.000002 -1.133457 44.775278 0.625745 0.000000 0.917755 0.000001 105.929103 -0.000004 -0.629533 0.000001 0.940221 0.000000 1.709737 43.651459 -0.000001 0.113772 1.960660 -88.303896 79.708697 -0.000013 -0.669733 -0.113771 0.388340 -0.561093 3.555878 126.824974 
0.000000 0.000000 0.000000 -0.000000 1.019410 35.612053 -0.000000 0.000000 1.456275 0.000000 -11.999958 0.000001 -0.000000 0.000002 1.471445 -0.000001 -1.133456 42.729930 0.625745 0.000000 0.917755 0.000003 107.257391 -0.000003 -0.629533 0.000001 0.940221 -0.000000 1.709737 41.657761 -0.000000 0.113772 1.960660 -88.303903 80.177275 -0.000015 -0.669733 -0.113771 0.388340 -0.567626 3.556794 127.196441 
0.000000 0.000000 0.000000 -0.000000 1.019410 33.922718 -0.000000 -0.000000 1.456275 0.000000 -13.564249 -0.000003 -0.000000 0.000002 1.471446 -0.000002 -1.133457 40.702275 0.625744 0.000000 0.917755 0.000011 108.574203 -0.000005 -0.629534 0.000001 0.940221 0.000002 1.709737 39.681312 -0.000001 0.113772 1.960660 -88.303903 80.641796 -0.000019 -0.669733 -0.113771 0.388341 -0.574112 3.557656 127.564711 
0.000000 0.000000 0.000000 -0.000000 1.019410 32.253533 -0.000000 0.000000 1.456275 0.000000 -15.109879 0.000001 -0.000000 0.000002 1.471446 0.000000 -1.133456 38.698814 0.625744 0.000000 0.917755 0.000012 109.875293 -0.000007 -0.629533 0.000001 0.940220 -0.000001 1.709737 37.728456 -0.000001 0.113772 1.960661 -88.303916 81.100778 -0.000008 -0.669733 -0.113771 0.388339 -0.580523 3.558472 127.928596 
0.000000 0.000000 0.000000 -0.000000 1.019410 30.529293 -0.000000 0.000000 1.456275 0.000000 -16.706492 -0.000003 -0.000000 0.000002 1.471445 -0.000002 -1.133457 36.629270 0.625745 0.000000 0.917755 0.000008 111.219297 -0.000004 -0.629534 0.000001 0.940221 -0.000003 1.709737 35.711176 -0.000001 0.113772 1.960660 -88.303909 81.574896 -0.000006 -0.669733 -0.113771 0.388340 -0.587152 3.559272 128.304462 
0.000000 0.000000 0.000000 -0.000000 1.019410 28.729845 -0.000000 0.000000 1.456275 0.000000 -18.372743 0.000001 -0.000000 0.000002 1.471446 -0.000002 -1.133455 34.469465 0.625745 0.000000 0.917755 -0.000001 112.621924 -0.000004 -0.629533 0.000001 0.940221 0.000000 1.709736 33.605914 -0.000000 0.113772 1.960660 -88.303896 82.069688 -0.000020 -0.669734 -0.113771 0.388340 -0.594075 3.560057 128.696719 
0.000000 0.000000 0.000000 -0.000000 1.019410 27.135869 -0.000000 0.000000 1.456275 -0.000001 -19.848733 -0.000000 -0.000000 0.000002 1.471446 -0.000001 -1.133455 32.556267 0.625745 0.000000 0.917755 0.000013 113.864403 -0.000000 -0.629533 0.000001 0.940221 -0.000004 1.709735 31.741033 -0.000002 0.113772 1.960660 -88.303916 82.507995 -0.000012 -0.669733 -0.113771 0.388339 -0.600210 3.560714 129.044212 
0.000000 0.000000 0.000000 -0.000000 1.019410 25.977182 -0.000000 -0.000000 1.456275 0.000000 -20.921653 -0.000002 -0.000000 0.000002 1.471446 -0.000001 -1.133458 31.165542 0.625745 0.000000 0.917755 0.000002 114.767573 -0.000002 -0.629534 0.000001 0.940221 -0.000002 1.709737 30.385428 -0.000001 0.113772 1.960661 -88.303916 82.826596 -0.000009 -0.669734 -0.113771 0.388340 -0.604674 3.561173 129.296792 
0.000000 0.000000 0.000000 -0.000000 1.019410 24.979489 -0.000000 -0.000000 1.456275 -0.000000 -21.845496 -0.000001 -0.000000 0.000002 1.471445 -0.000001 -1.133455 29.968049 0.625745 0.000000 0.917755 0.000001 115.545258 -0.000005 -0.629534 0.000001 0.940221 -0.000000 1.709736 29.218176 -0.000001 0.113772 1.960660 -88.303916 83.100931 -0.000006 -0.669733 -0.113771 0.388339 -0.608519 3.561548 129.514279 
0.000000 0.000000 0.000000 -0.000000 1.019410 23.742441 -0.000000 0.000000 1.456275 -0.000001 -22.990980 0.000001 -0.000000 0.000002 1.471446 -0.000001 -1.133456 28.483267 0.625745 0.000000 0.917755 0.000007 116.509503 0.000001 -0.629534 0.000001 0.940221 -0.000006 1.709736 27.770890 -0.000000 0.113772 1.960661 -88.303896 83.441088 -0.000021 -0.669733 -0.113771 0.388340 -0.613288 3.561995 129.783962 
0.000000 0.000000 0.000000 -0.000000 1.019410 22.040711 -0.000000 -0.000000 1.456275 -0.000000 -24.566742 -0.000001 -0.000001 0.000002 1.471445 -0.000001 -1.133459 26.440736 0.625745 0.000000 0.917755 0.000010 117.835954 -0.000002 -0.629534 0.000001 0.940221 -0.000007 1.709736 25.779948 -0.000000 0.113772 1.960661 -88.303903 83.909017 -0.000034 -0.669733 -0.113771 0.388340 -0.619852 3.562571 130.154924 
